<svg xmlns="http://www.w3.org/2000/svg" xmlns:xlink="http://www.w3.org/1999/xlink" xmlns:s="https://github.com/nturley/netlistsvg" width="1303.5" height="635.5"><style>svg {
  stroke:#000;
  fill:none;
}
text {
  fill:#000;
  stroke:none;
  font-size:10px;
  font-weight: bold;
  font-family: "Courier New", monospace;
}
line {
    stroke-linecap: round;
}
.nodelabel {
  text-anchor: middle;
}
.inputPortLabel {
  text-anchor: end;
}
.splitjoinBody {
  fill:#000;
}</style><g s:type="not" transform="translate(394,468.5)" s:width="30" s:height="20" id="cell_$eq$left_shifter.v:10$2"><s:alias val="$_NOT_"/><s:alias val="$not"/><s:alias val="$logic_not"/><path d="M0,0 L0,20 L20,10 Z" fill="#eebaff" class="cell_$eq$left_shifter.v:10$2"/><circle cx="24" cy="10" r="3" fill="#eebaff" class="cell_$eq$left_shifter.v:10$2"/><g s:x="-1" s:y="10" s:pid="A"/><g s:x="27" s:y="10" s:pid="Y"/></g><g s:type="eq" transform="translate(395.3333333333333,523.5)" s:width="25" s:height="25" id="cell_$eq$left_shifter.v:10$3"><s:alias val="$eq"/><circle r="12.5" cx="12.5" cy="12.5" fill="#ffc9c3" class="cell_$eq$left_shifter.v:10$3"/><line x1="7.5" x2="17.5" y1="10" y2="10" class="cell_$eq$left_shifter.v:10$3"/><line x1="7.5" x2="17.5" y1="15" y2="15" class="cell_$eq$left_shifter.v:10$3"/><g s:x="2" s:y="5" s:pid="A"/><g s:x="2" s:y="20" s:pid="B"/><g s:x="25" s:y="12.5" s:pid="Y"/></g><g s:type="eq" transform="translate(333,409.5)" s:width="25" s:height="25" id="cell_$eq$left_shifter.v:14$5"><s:alias val="$eq"/><circle r="12.5" cx="12.5" cy="12.5" fill="#ffc9c3" class="cell_$eq$left_shifter.v:14$5"/><line x1="7.5" x2="17.5" y1="10" y2="10" class="cell_$eq$left_shifter.v:14$5"/><line x1="7.5" x2="17.5" y1="15" y2="15" class="cell_$eq$left_shifter.v:14$5"/><g s:x="2" s:y="5" s:pid="A"/><g s:x="2" s:y="20" s:pid="B"/><g s:x="25" s:y="12.5" s:pid="Y"/></g><g s:type="eq" transform="translate(203,160)" s:width="25" s:height="25" id="cell_$eq$left_shifter.v:18$6"><s:alias val="$eq"/><circle r="12.5" cx="12.5" cy="12.5" fill="#ffc9c3" class="cell_$eq$left_shifter.v:18$6"/><line x1="7.5" x2="17.5" y1="10" y2="10" class="cell_$eq$left_shifter.v:18$6"/><line x1="7.5" x2="17.5" y1="15" y2="15" class="cell_$eq$left_shifter.v:18$6"/><g s:x="2" s:y="5" s:pid="A"/><g s:x="2" s:y="20" s:pid="B"/><g s:x="25" s:y="12.5" s:pid="Y"/></g><g s:type="or" transform="translate(459,516)" s:width="30" s:height="25" id="cell_$logic_or$left_shifter.v:10$4"><s:alias val="$or"/><s:alias val="$logic_or"/><s:alias val="$_OR_"/><path d="M0,25 L0,25 L15,25 A15 12.5 0 0 0 15,0 L0,0 A30 25 0 0 1 0,25 Z" fill="#eebaff" class="cell_$logic_or$left_shifter.v:10$4"/><g s:x="2" s:y="5" s:pid="A"/><g s:x="2" s:y="20" s:pid="B"/><g s:x="30" s:y="12.5" s:pid="Y"/></g><g s:type="mux-bus" transform="translate(395.6666666666667,167)" s:width="24" s:height="40" id="cell_$procmux$11"><s:alias val="$pmux-bus"/><s:alias val="$mux-bus"/><s:alias val="$_MUX_-bus"/><path d="M8,2 L8,0 L24,8 L24,32 L8,40 L8,38" fill="#ffffff" class="cell_$procmux$11"/><path d="M4,2 L4,0 L22,9 L22,31 L4,40 L4,38" fill="#ffffff" class="cell_$procmux$11"/><path d="M0,0 L20,10 L20,30 L0,40 Z" fill="#ffffff" class="cell_$procmux$11"/><text x="5" y="32" class="nodelabel cell_$procmux$11" s:attribute="">1</text><text x="5" y="13" class="nodelabel cell_$procmux$11" s:attribute="">0</text><g s:x="-1" s:y="10" s:pid="A"/><g s:x="-1" s:y="30" s:pid="B"/><g s:x="12" s:y="38" s:pid="S"/><g s:x="24.5" s:y="20" s:pid="Y"/></g><g s:type="mux-bus" transform="translate(525,227)" s:width="24" s:height="40" id="cell_$procmux$14"><s:alias val="$pmux-bus"/><s:alias val="$mux-bus"/><s:alias val="$_MUX_-bus"/><path d="M8,2 L8,0 L24,8 L24,32 L8,40 L8,38" fill="#ffffff" class="cell_$procmux$14"/><path d="M4,2 L4,0 L22,9 L22,31 L4,40 L4,38" fill="#ffffff" class="cell_$procmux$14"/><path d="M0,0 L20,10 L20,30 L0,40 Z" fill="#ffffff" class="cell_$procmux$14"/><text x="5" y="32" class="nodelabel cell_$procmux$14" s:attribute="">1</text><text x="5" y="13" class="nodelabel cell_$procmux$14" s:attribute="">0</text><g s:x="-1" s:y="10" s:pid="A"/><g s:x="-1" s:y="30" s:pid="B"/><g s:x="12" s:y="38" s:pid="S"/><g s:x="24.5" s:y="20" s:pid="Y"/></g><g s:type="mux-bus" transform="translate(736.1666666666666,372)" s:width="24" s:height="40" id="cell_$procmux$17"><s:alias val="$pmux-bus"/><s:alias val="$mux-bus"/><s:alias val="$_MUX_-bus"/><path d="M8,2 L8,0 L24,8 L24,32 L8,40 L8,38" fill="#ffffff" class="cell_$procmux$17"/><path d="M4,2 L4,0 L22,9 L22,31 L4,40 L4,38" fill="#ffffff" class="cell_$procmux$17"/><path d="M0,0 L20,10 L20,30 L0,40 Z" fill="#ffffff" class="cell_$procmux$17"/><text x="5" y="32" class="nodelabel cell_$procmux$17" s:attribute="">1</text><text x="5" y="13" class="nodelabel cell_$procmux$17" s:attribute="">0</text><g s:x="-1" s:y="10" s:pid="A"/><g s:x="-1" s:y="30" s:pid="B"/><g s:x="12" s:y="38" s:pid="S"/><g s:x="24.5" s:y="20" s:pid="Y"/></g><g s:type="mux-bus" transform="translate(839.5,468.5)" s:width="24" s:height="40" id="cell_$procmux$20"><s:alias val="$pmux-bus"/><s:alias val="$mux-bus"/><s:alias val="$_MUX_-bus"/><path d="M8,2 L8,0 L24,8 L24,32 L8,40 L8,38" fill="#ffffff" class="cell_$procmux$20"/><path d="M4,2 L4,0 L22,9 L22,31 L4,40 L4,38" fill="#ffffff" class="cell_$procmux$20"/><path d="M0,0 L20,10 L20,30 L0,40 Z" fill="#ffffff" class="cell_$procmux$20"/><text x="5" y="32" class="nodelabel cell_$procmux$20" s:attribute="">1</text><text x="5" y="13" class="nodelabel cell_$procmux$20" s:attribute="">0</text><g s:x="-1" s:y="10" s:pid="A"/><g s:x="-1" s:y="30" s:pid="B"/><g s:x="12" s:y="38" s:pid="S"/><g s:x="24.5" s:y="20" s:pid="Y"/></g><g s:type="mux-bus" transform="translate(839.5,83)" s:width="24" s:height="40" id="cell_$procmux$23"><s:alias val="$pmux-bus"/><s:alias val="$mux-bus"/><s:alias val="$_MUX_-bus"/><path d="M8,2 L8,0 L24,8 L24,32 L8,40 L8,38" fill="#ffffff" class="cell_$procmux$23"/><path d="M4,2 L4,0 L22,9 L22,31 L4,40 L4,38" fill="#ffffff" class="cell_$procmux$23"/><path d="M0,0 L20,10 L20,30 L0,40 Z" fill="#ffffff" class="cell_$procmux$23"/><text x="5" y="32" class="nodelabel cell_$procmux$23" s:attribute="">1</text><text x="5" y="13" class="nodelabel cell_$procmux$23" s:attribute="">0</text><g s:x="-1" s:y="10" s:pid="A"/><g s:x="-1" s:y="30" s:pid="B"/><g s:x="12" s:y="38" s:pid="S"/><g s:x="24.5" s:y="20" s:pid="Y"/></g><g s:type="mux-bus" transform="translate(939.5,136)" s:width="24" s:height="40" id="cell_$procmux$26"><s:alias val="$pmux-bus"/><s:alias val="$mux-bus"/><s:alias val="$_MUX_-bus"/><path d="M8,2 L8,0 L24,8 L24,32 L8,40 L8,38" fill="#ffffff" class="cell_$procmux$26"/><path d="M4,2 L4,0 L22,9 L22,31 L4,40 L4,38" fill="#ffffff" class="cell_$procmux$26"/><path d="M0,0 L20,10 L20,30 L0,40 Z" fill="#ffffff" class="cell_$procmux$26"/><text x="5" y="32" class="nodelabel cell_$procmux$26" s:attribute="">1</text><text x="5" y="13" class="nodelabel cell_$procmux$26" s:attribute="">0</text><g s:x="-1" s:y="10" s:pid="A"/><g s:x="-1" s:y="30" s:pid="B"/><g s:x="12" s:y="38" s:pid="S"/><g s:x="24.5" s:y="20" s:pid="Y"/></g><g s:type="mux-bus" transform="translate(736.1666666666666,247)" s:width="24" s:height="40" id="cell_$procmux$29"><s:alias val="$pmux-bus"/><s:alias val="$mux-bus"/><s:alias val="$_MUX_-bus"/><path d="M8,2 L8,0 L24,8 L24,32 L8,40 L8,38" fill="#ffffff" class="cell_$procmux$29"/><path d="M4,2 L4,0 L22,9 L22,31 L4,40 L4,38" fill="#ffffff" class="cell_$procmux$29"/><path d="M0,0 L20,10 L20,30 L0,40 Z" fill="#ffffff" class="cell_$procmux$29"/><text x="5" y="32" class="nodelabel cell_$procmux$29" s:attribute="">1</text><text x="5" y="13" class="nodelabel cell_$procmux$29" s:attribute="">0</text><g s:x="-1" s:y="10" s:pid="A"/><g s:x="-1" s:y="30" s:pid="B"/><g s:x="12" s:y="38" s:pid="S"/><g s:x="24.5" s:y="20" s:pid="Y"/></g><g s:type="mux-bus" transform="translate(839.5,297)" s:width="24" s:height="40" id="cell_$procmux$32"><s:alias val="$pmux-bus"/><s:alias val="$mux-bus"/><s:alias val="$_MUX_-bus"/><path d="M8,2 L8,0 L24,8 L24,32 L8,40 L8,38" fill="#ffffff" class="cell_$procmux$32"/><path d="M4,2 L4,0 L22,9 L22,31 L4,40 L4,38" fill="#ffffff" class="cell_$procmux$32"/><path d="M0,0 L20,10 L20,30 L0,40 Z" fill="#ffffff" class="cell_$procmux$32"/><text x="5" y="32" class="nodelabel cell_$procmux$32" s:attribute="">1</text><text x="5" y="13" class="nodelabel cell_$procmux$32" s:attribute="">0</text><g s:x="-1" s:y="10" s:pid="A"/><g s:x="-1" s:y="30" s:pid="B"/><g s:x="12" s:y="38" s:pid="S"/><g s:x="24.5" s:y="20" s:pid="Y"/></g><g s:type="mux-bus" transform="translate(1039,562.5)" s:width="24" s:height="40" id="cell_$procmux$35"><s:alias val="$pmux-bus"/><s:alias val="$mux-bus"/><s:alias val="$_MUX_-bus"/><path d="M8,2 L8,0 L24,8 L24,32 L8,40 L8,38" fill="#ffffff" class="cell_$procmux$35"/><path d="M4,2 L4,0 L22,9 L22,31 L4,40 L4,38" fill="#ffffff" class="cell_$procmux$35"/><path d="M0,0 L20,10 L20,30 L0,40 Z" fill="#ffffff" class="cell_$procmux$35"/><text x="5" y="32" class="nodelabel cell_$procmux$35" s:attribute="">1</text><text x="5" y="13" class="nodelabel cell_$procmux$35" s:attribute="">0</text><g s:x="-1" s:y="10" s:pid="A"/><g s:x="-1" s:y="30" s:pid="B"/><g s:x="12" s:y="38" s:pid="S"/><g s:x="24.5" s:y="20" s:pid="Y"/></g><g s:type="mux-bus" transform="translate(1039,12)" s:width="24" s:height="40" id="cell_$procmux$38"><s:alias val="$pmux-bus"/><s:alias val="$mux-bus"/><s:alias val="$_MUX_-bus"/><path d="M8,2 L8,0 L24,8 L24,32 L8,40 L8,38" fill="#ffffff" class="cell_$procmux$38"/><path d="M4,2 L4,0 L22,9 L22,31 L4,40 L4,38" fill="#ffffff" class="cell_$procmux$38"/><path d="M0,0 L20,10 L20,30 L0,40 Z" fill="#ffffff" class="cell_$procmux$38"/><text x="5" y="32" class="nodelabel cell_$procmux$38" s:attribute="">1</text><text x="5" y="13" class="nodelabel cell_$procmux$38" s:attribute="">0</text><g s:x="-1" s:y="10" s:pid="A"/><g s:x="-1" s:y="30" s:pid="B"/><g s:x="12" s:y="38" s:pid="S"/><g s:x="24.5" s:y="20" s:pid="Y"/></g><g s:type="mux-bus" transform="translate(1039,206)" s:width="24" s:height="40" id="cell_$procmux$41"><s:alias val="$pmux-bus"/><s:alias val="$mux-bus"/><s:alias val="$_MUX_-bus"/><path d="M8,2 L8,0 L24,8 L24,32 L8,40 L8,38" fill="#ffffff" class="cell_$procmux$41"/><path d="M4,2 L4,0 L22,9 L22,31 L4,40 L4,38" fill="#ffffff" class="cell_$procmux$41"/><path d="M0,0 L20,10 L20,30 L0,40 Z" fill="#ffffff" class="cell_$procmux$41"/><text x="5" y="32" class="nodelabel cell_$procmux$41" s:attribute="">1</text><text x="5" y="13" class="nodelabel cell_$procmux$41" s:attribute="">0</text><g s:x="-1" s:y="10" s:pid="A"/><g s:x="-1" s:y="30" s:pid="B"/><g s:x="12" s:y="38" s:pid="S"/><g s:x="24.5" s:y="20" s:pid="Y"/></g><g s:type="mux-bus" transform="translate(269.6666666666667,89)" s:width="24" s:height="40" id="cell_$procmux$8"><s:alias val="$pmux-bus"/><s:alias val="$mux-bus"/><s:alias val="$_MUX_-bus"/><path d="M8,2 L8,0 L24,8 L24,32 L8,40 L8,38" fill="#ffffff" class="cell_$procmux$8"/><path d="M4,2 L4,0 L22,9 L22,31 L4,40 L4,38" fill="#ffffff" class="cell_$procmux$8"/><path d="M0,0 L20,10 L20,30 L0,40 Z" fill="#ffffff" class="cell_$procmux$8"/><text x="5" y="32" class="nodelabel cell_$procmux$8" s:attribute="">1</text><text x="5" y="13" class="nodelabel cell_$procmux$8" s:attribute="">0</text><g s:x="-1" s:y="10" s:pid="A"/><g s:x="-1" s:y="30" s:pid="B"/><g s:x="12" s:y="38" s:pid="S"/><g s:x="24.5" s:y="20" s:pid="Y"/></g><g s:type="inputExt" transform="translate(113,216)" s:width="30" s:height="20" id="cell_shift_in"><text x="15" y="-4" class="nodelabel cell_shift_in" s:attribute="ref">shift_in</text><s:alias val="$_inputExt_"/><path d="M0,0 L0,20 L15,20 L30,10 L15,0 Z" fill="#8bcaff" class="cell_shift_in"/><g s:x="30" s:y="10" s:pid="Y"/></g><g s:type="inputExt" transform="translate(12,603.5)" s:width="30" s:height="20" id="cell_shift_cntrl"><text x="15" y="-4" class="nodelabel cell_shift_cntrl" s:attribute="ref">shift_cntrl</text><s:alias val="$_inputExt_"/><path d="M0,0 L0,20 L15,20 L30,10 L15,0 Z" fill="#8bcaff" class="cell_shift_cntrl"/><g s:x="30" s:y="10" s:pid="Y"/></g><g s:type="outputExt" transform="translate(1237.5,216)" s:width="30" s:height="20" id="cell_shift_out"><text x="15" y="-4" class="nodelabel cell_shift_out" s:attribute="ref">shift_out</text><s:alias val="$_outputExt_"/><path d="M30,0 L30,20 L15,20 L0,10 L15,0 Z" fill="#169300" class="cell_shift_out"/><g s:x="0" s:y="10" s:pid="A"/></g><g s:type="constant" transform="translate(267,533.5)" s:width="30" s:height="20" id="cell_11"><text x="15" y="-4" class="nodelabel cell_11" s:attribute="ref">11</text><s:alias val="$_constant_"/><rect width="30" height="20" fill="#745bff" class="cell_11"/><g s:x="31" s:y="10" s:pid="Y"/></g><g s:type="constant" transform="translate(201,419.5)" s:width="30" s:height="20" id="cell_01"><text x="15" y="-4" class="nodelabel cell_01" s:attribute="ref">01</text><s:alias val="$_constant_"/><rect width="30" height="20" fill="#745bff" class="cell_01"/><g s:x="31" s:y="10" s:pid="Y"/></g><g s:type="constant" transform="translate(12,265)" s:width="30" s:height="20" id="cell_10"><text x="15" y="-4" class="nodelabel cell_10" s:attribute="ref">10</text><s:alias val="$_constant_"/><rect width="30" height="20" fill="#745bff" class="cell_10"/><g s:x="31" s:y="10" s:pid="Y"/></g><g s:type="constant" transform="translate(267,247)" s:width="30" s:height="20" id="cell_xxxxxxxx"><text x="15" y="-4" class="nodelabel cell_xxxxxxxx" s:attribute="ref">0xNaN</text><s:alias val="$_constant_"/><rect width="30" height="20" fill="#745bff" class="cell_xxxxxxxx"/><g s:x="31" s:y="10" s:pid="Y"/></g><g s:type="constant" transform="translate(623.5,83)" s:width="30" s:height="20" id="cell_0000"><text x="15" y="-4" class="nodelabel cell_0000" s:attribute="ref">0x0</text><s:alias val="$_constant_"/><rect width="30" height="20" fill="#745bff" class="cell_0000"/><g s:x="31" s:y="10" s:pid="Y"/></g><g s:type="constant" transform="translate(733.5,317)" s:width="30" s:height="20" id="cell_xxxx"><text x="15" y="-4" class="nodelabel cell_xxxx" s:attribute="ref">0xNaN</text><s:alias val="$_constant_"/><rect width="30" height="20" fill="#745bff" class="cell_xxxx"/><g s:x="31" s:y="10" s:pid="Y"/></g><g s:type="constant" transform="translate(113,582.5)" s:width="30" s:height="20" id="cell_00000000"><text x="15" y="-4" class="nodelabel cell_00000000" s:attribute="ref">0x0</text><s:alias val="$_constant_"/><rect width="30" height="20" fill="#745bff" class="cell_00000000"/><g s:x="31" s:y="10" s:pid="Y"/></g><g s:type="join" transform="translate(958,541.5)" s:width="5" s:height="40" id="cell_$join$,77,78,79,80,61,62,63,64,"><rect width="5" height="40" class="splitjoinBody" s:generic="body"/><s:alias val="$_join_"/><g s:x="5" s:y="20" s:pid="out"/><g transform="translate(-1,10)" s:x="-1" s:y="10" s:pid="in0"><text x="-3" y="-4" class="inputPortLabel">0:3</text></g><g transform="translate(-1,30)" s:x="-1" s:y="10" s:pid="in0"><text x="-3" y="-4" class="inputPortLabel">4:7</text></g></g><g s:type="join" transform="translate(1157.5,195.5)" s:width="5" s:height="40" id="cell_$join$,12,13,14,15,16,17,18,19,20,21,22,23,24,25,26,27,"><rect width="5" height="60" class="splitjoinBody" s:generic="body"/><s:alias val="$_join_"/><g s:x="5" s:y="20" s:pid="out"/><g transform="translate(-1,10)" s:x="-1" s:y="10" s:pid="in0"><text x="-3" y="-4" class="inputPortLabel">0:3</text></g><g transform="translate(-1,30)" s:x="-1" s:y="10" s:pid="in0"><text x="-3" y="-4" class="inputPortLabel">4:7</text></g><g transform="translate(-1,50)" s:x="-1" s:y="10" s:pid="in0"><text x="-3" y="-4" class="inputPortLabel">8:15</text></g></g><g s:type="split" transform="translate(629.5,226.5)" s:width="5" s:height="40" id="cell_$split$,49,50,51,52,53,54,55,56,"><rect width="5" height="40" class="splitjoinBody" s:generic="body"/><s:alias val="$_split_"/><g s:x="-1" s:y="20" s:pid="in"/><g transform="translate(5,10)" s:x="5" s:y="10" s:pid="out0"><text x="5" y="-4">4:7</text></g><g transform="translate(5,30)" s:x="5" s:y="10" s:pid="out0"><text x="5" y="-4">0:3</text></g></g><g s:type="split" transform="translate(629.5,146)" s:width="5" s:height="40" id="cell_$split$,2,3,4,5,6,7,8,9,"><rect width="5" height="40" class="splitjoinBody" s:generic="body"/><s:alias val="$_split_"/><g s:x="-1" s:y="20" s:pid="in"/><g transform="translate(5,10)" s:x="5" s:y="10" s:pid="out0"><text x="5" y="-4">0:3</text></g><g transform="translate(5,30)" s:x="5" s:y="10" s:pid="out0"><text x="5" y="-4">4:7</text></g></g><line x1="42" x2="181" y1="613.5" y2="613.5" class="net_10,11 width_2" style="stroke-width: 2"/><line x1="181" x2="181" y1="613.5" y2="478.5" class="net_10,11 width_2" style="stroke-width: 2"/><circle cx="181" cy="478.5" r="3" style="fill:#000" class="net_10,11 width_2"/><line x1="181" x2="393" y1="478.5" y2="478.5" class="net_10,11 width_2" style="stroke-width: 2"/><line x1="42" x2="181" y1="613.5" y2="613.5" class="net_10,11 width_2" style="stroke-width: 2"/><line x1="181" x2="181" y1="613.5" y2="512.5" class="net_10,11 width_2" style="stroke-width: 2"/><line x1="181" x2="368" y1="512.5" y2="512.5" class="net_10,11 width_2" style="stroke-width: 2"/><line x1="368" x2="368" y1="512.5" y2="528.5" class="net_10,11 width_2" style="stroke-width: 2"/><circle cx="181" cy="512.5" r="3" style="fill:#000" class="net_10,11 width_2"/><line x1="368" x2="397.3333333333333" y1="528.5" y2="528.5" class="net_10,11 width_2" style="stroke-width: 2"/><line x1="42" x2="181" y1="613.5" y2="613.5" class="net_10,11 width_2" style="stroke-width: 2"/><line x1="181" x2="181" y1="613.5" y2="368.5" class="net_10,11 width_2" style="stroke-width: 2"/><line x1="181" x2="308" y1="368.5" y2="368.5" class="net_10,11 width_2" style="stroke-width: 2"/><line x1="308" x2="308" y1="368.5" y2="414.5" class="net_10,11 width_2" style="stroke-width: 2"/><line x1="308" x2="335" y1="414.5" y2="414.5" class="net_10,11 width_2" style="stroke-width: 2"/><line x1="42" x2="88" y1="613.5" y2="613.5" class="net_10,11 width_2" style="stroke-width: 2"/><line x1="88" x2="88" y1="613.5" y2="165" class="net_10,11 width_2" style="stroke-width: 2"/><circle cx="88" cy="613.5" r="3" style="fill:#000" class="net_10,11 width_2"/><line x1="88" x2="205" y1="165" y2="165" class="net_10,11 width_2" style="stroke-width: 2"/><line x1="298" x2="397.3333333333333" y1="543.5" y2="543.5" class="net_81,82 width_2" style="stroke-width: 2"/><line x1="232" x2="335" y1="429.5" y2="429.5" class="net_83,84 width_2" style="stroke-width: 2"/><line x1="43" x2="191" y1="275" y2="275" class="net_85,86 width_2" style="stroke-width: 2"/><line x1="191" x2="191" y1="275" y2="180" class="net_85,86 width_2" style="stroke-width: 2"/><line x1="191" x2="205" y1="180" y2="180" class="net_85,86 width_2" style="stroke-width: 2"/><line x1="421" x2="434" y1="478.5" y2="478.5" class="net_28 width_1" style="stroke-width: 1"/><line x1="434" x2="434" y1="478.5" y2="521" class="net_28 width_1" style="stroke-width: 1"/><line x1="434" x2="461" y1="521" y2="521" class="net_28 width_1" style="stroke-width: 1"/><line x1="420.3333333333333" x2="461" y1="536" y2="536" class="net_29 width_1" style="stroke-width: 1"/><line x1="294.1666666666667" x2="378" y1="109" y2="109" class="net_33,34,35,36,37,38,39,40 width_8" style="stroke-width: 2"/><line x1="378" x2="378" y1="109" y2="177" class="net_33,34,35,36,37,38,39,40 width_8" style="stroke-width: 2"/><line x1="378" x2="394.6666666666667" y1="177" y2="177" class="net_33,34,35,36,37,38,39,40 width_8" style="stroke-width: 2"/><line x1="298" x2="308" y1="257" y2="257" class="net_87,88,89,90,91,92,93,94 width_8" style="stroke-width: 2"/><line x1="308" x2="308" y1="257" y2="197" class="net_87,88,89,90,91,92,93,94 width_8" style="stroke-width: 2"/><circle cx="308" cy="257" r="3" style="fill:#000" class="net_87,88,89,90,91,92,93,94 width_8"/><line x1="308" x2="394.6666666666667" y1="197" y2="197" class="net_87,88,89,90,91,92,93,94 width_8" style="stroke-width: 2"/><line x1="298" x2="524" y1="257" y2="257" class="net_87,88,89,90,91,92,93,94 width_8" style="stroke-width: 2"/><line x1="358" x2="368" y1="422" y2="422" class="net_30 width_1" style="stroke-width: 1"/><line x1="368" x2="368" y1="422" y2="217" class="net_30 width_1" style="stroke-width: 1"/><line x1="368" x2="407.6666666666667" y1="217" y2="217" class="net_30 width_1" style="stroke-width: 1"/><circle cx="368" cy="422" r="2" style="fill:#000" class="net_30 width_1"/><circle cx="368" cy="217" r="2" style="fill:#000" class="net_30 width_1"/><line x1="407.6666666666667" x2="407.6666666666667" y1="217" y2="205" class="net_30 width_1" style="stroke-width: 1"/><line x1="358" x2="748.1666666666666" y1="422" y2="422" class="net_30 width_1" style="stroke-width: 1"/><line x1="748.1666666666666" x2="748.1666666666666" y1="422" y2="410" class="net_30 width_1" style="stroke-width: 1"/><line x1="358" x2="368" y1="422" y2="422" class="net_30 width_1" style="stroke-width: 1"/><line x1="368" x2="368" y1="422" y2="133" class="net_30 width_1" style="stroke-width: 1"/><line x1="368" x2="851.5" y1="133" y2="133" class="net_30 width_1" style="stroke-width: 1"/><line x1="851.5" x2="851.5" y1="133" y2="121" class="net_30 width_1" style="stroke-width: 1"/><line x1="358" x2="684.5" y1="422" y2="422" class="net_30 width_1" style="stroke-width: 1"/><line x1="684.5" x2="684.5" y1="422" y2="297" class="net_30 width_1" style="stroke-width: 1"/><line x1="684.5" x2="748.1666666666666" y1="297" y2="297" class="net_30 width_1" style="stroke-width: 1"/><circle cx="684.5" cy="422" r="2" style="fill:#000" class="net_30 width_1"/><line x1="748.1666666666666" x2="748.1666666666666" y1="297" y2="285" class="net_30 width_1" style="stroke-width: 1"/><line x1="420.1666666666667" x2="509" y1="187" y2="187" class="net_41,42,43,44,45,46,47,48 width_8" style="stroke-width: 2"/><line x1="509" x2="509" y1="187" y2="237" class="net_41,42,43,44,45,46,47,48 width_8" style="stroke-width: 2"/><line x1="509" x2="524" y1="237" y2="237" class="net_41,42,43,44,45,46,47,48 width_8" style="stroke-width: 2"/><line x1="489" x2="499" y1="528.5" y2="528.5" class="net_32 width_1" style="stroke-width: 1"/><line x1="499" x2="499" y1="528.5" y2="401" class="net_32 width_1" style="stroke-width: 1"/><line x1="499" x2="537" y1="401" y2="401" class="net_32 width_1" style="stroke-width: 1"/><circle cx="499" cy="528.5" r="2" style="fill:#000" class="net_32 width_1"/><circle cx="499" cy="401" r="2" style="fill:#000" class="net_32 width_1"/><line x1="537" x2="537" y1="401" y2="265" class="net_32 width_1" style="stroke-width: 1"/><line x1="489" x2="813.5" y1="528.5" y2="528.5" class="net_32 width_1" style="stroke-width: 1"/><line x1="813.5" x2="813.5" y1="528.5" y2="518.5" class="net_32 width_1" style="stroke-width: 1"/><line x1="813.5" x2="851.5" y1="518.5" y2="518.5" class="net_32 width_1" style="stroke-width: 1"/><circle cx="813.5" cy="528.5" r="2" style="fill:#000" class="net_32 width_1"/><line x1="851.5" x2="851.5" y1="518.5" y2="506.5" class="net_32 width_1" style="stroke-width: 1"/><line x1="489" x2="499" y1="528.5" y2="528.5" class="net_32 width_1" style="stroke-width: 1"/><line x1="499" x2="499" y1="528.5" y2="196" class="net_32 width_1" style="stroke-width: 1"/><line x1="499" x2="913" y1="196" y2="196" class="net_32 width_1" style="stroke-width: 1"/><line x1="913" x2="913" y1="196" y2="186" class="net_32 width_1" style="stroke-width: 1"/><line x1="913" x2="951.5" y1="186" y2="186" class="net_32 width_1" style="stroke-width: 1"/><circle cx="913" cy="196" r="2" style="fill:#000" class="net_32 width_1"/><line x1="951.5" x2="951.5" y1="186" y2="174" class="net_32 width_1" style="stroke-width: 1"/><line x1="489" x2="774.5" y1="528.5" y2="528.5" class="net_32 width_1" style="stroke-width: 1"/><line x1="774.5" x2="774.5" y1="528.5" y2="377" class="net_32 width_1" style="stroke-width: 1"/><line x1="774.5" x2="851.5" y1="377" y2="377" class="net_32 width_1" style="stroke-width: 1"/><circle cx="774.5" cy="528.5" r="2" style="fill:#000" class="net_32 width_1"/><line x1="851.5" x2="851.5" y1="377" y2="335" class="net_32 width_1" style="stroke-width: 1"/><line x1="489" x2="499" y1="528.5" y2="528.5" class="net_32 width_1" style="stroke-width: 1"/><line x1="499" x2="499" y1="528.5" y2="612.5" class="net_32 width_1" style="stroke-width: 1"/><line x1="499" x2="1051" y1="612.5" y2="612.5" class="net_32 width_1" style="stroke-width: 1"/><line x1="1051" x2="1051" y1="612.5" y2="600.5" class="net_32 width_1" style="stroke-width: 1"/><line x1="489" x2="499" y1="528.5" y2="528.5" class="net_32 width_1" style="stroke-width: 1"/><line x1="499" x2="499" y1="528.5" y2="411" class="net_32 width_1" style="stroke-width: 1"/><line x1="499" x2="559.5" y1="411" y2="411" class="net_32 width_1" style="stroke-width: 1"/><line x1="559.5" x2="559.5" y1="411" y2="196" class="net_32 width_1" style="stroke-width: 1"/><line x1="559.5" x2="1051" y1="196" y2="196" class="net_32 width_1" style="stroke-width: 1"/><circle cx="499" cy="411" r="2" style="fill:#000" class="net_32 width_1"/><circle cx="559.5" cy="196" r="2" style="fill:#000" class="net_32 width_1"/><line x1="1051" x2="1051" y1="196" y2="50" class="net_32 width_1" style="stroke-width: 1"/><line x1="489" x2="1051" y1="528.5" y2="528.5" class="net_32 width_1" style="stroke-width: 1"/><line x1="1051" x2="1051" y1="528.5" y2="244" class="net_32 width_1" style="stroke-width: 1"/><line x1="635.5" x2="674.5" y1="237" y2="237" class="net_53,54,55,56 width_4" style="stroke-width: 2"/><line x1="674.5" x2="674.5" y1="237" y2="382" class="net_53,54,55,56 width_4" style="stroke-width: 2"/><line x1="674.5" x2="735.1666666666666" y1="382" y2="382" class="net_53,54,55,56 width_4" style="stroke-width: 2"/><line x1="654.5" x2="664.5" y1="93" y2="93" class="net_103,104,105,106 width_4" style="stroke-width: 2"/><line x1="664.5" x2="664.5" y1="93" y2="402" class="net_103,104,105,106 width_4" style="stroke-width: 2"/><circle cx="664.5" cy="93" r="3" style="fill:#000" class="net_103,104,105,106 width_4"/><line x1="664.5" x2="735.1666666666666" y1="402" y2="402" class="net_103,104,105,106 width_4" style="stroke-width: 2"/><line x1="654.5" x2="838.5" y1="93" y2="93" class="net_103,104,105,106 width_4" style="stroke-width: 2"/><line x1="654.5" x2="664.5" y1="93" y2="93" class="net_103,104,105,106 width_4" style="stroke-width: 2"/><line x1="664.5" x2="664.5" y1="93" y2="22" class="net_103,104,105,106 width_4" style="stroke-width: 2"/><line x1="664.5" x2="1038" y1="22" y2="22" class="net_103,104,105,106 width_4" style="stroke-width: 2"/><line x1="760.6666666666666" x2="813.5" y1="392" y2="392" class="net_57,58,59,60 width_4" style="stroke-width: 2"/><line x1="813.5" x2="813.5" y1="392" y2="478.5" class="net_57,58,59,60 width_4" style="stroke-width: 2"/><line x1="813.5" x2="838.5" y1="478.5" y2="478.5" class="net_57,58,59,60 width_4" style="stroke-width: 2"/><line x1="764.5" x2="784.5" y1="327" y2="327" class="net_107,108,109,110 width_4" style="stroke-width: 2"/><line x1="784.5" x2="784.5" y1="327" y2="498.5" class="net_107,108,109,110 width_4" style="stroke-width: 2"/><circle cx="784.5" cy="327" r="3" style="fill:#000" class="net_107,108,109,110 width_4"/><line x1="784.5" x2="838.5" y1="498.5" y2="498.5" class="net_107,108,109,110 width_4" style="stroke-width: 2"/><line x1="764.5" x2="784.5" y1="327" y2="327" class="net_107,108,109,110 width_4" style="stroke-width: 2"/><line x1="784.5" x2="784.5" y1="327" y2="166" class="net_107,108,109,110 width_4" style="stroke-width: 2"/><line x1="784.5" x2="938.5" y1="166" y2="166" class="net_107,108,109,110 width_4" style="stroke-width: 2"/><line x1="764.5" x2="838.5" y1="327" y2="327" class="net_107,108,109,110 width_4" style="stroke-width: 2"/><line x1="635.5" x2="674.5" y1="156.5" y2="156.5" class="net_2,3,4,5 width_4" style="stroke-width: 2"/><line x1="674.5" x2="674.5" y1="156.5" y2="113" class="net_2,3,4,5 width_4" style="stroke-width: 2"/><circle cx="674.5" cy="113" r="3" style="fill:#000" class="net_2,3,4,5 width_4"/><line x1="674.5" x2="838.5" y1="113" y2="113" class="net_2,3,4,5 width_4" style="stroke-width: 2"/><line x1="635.5" x2="674.5" y1="156.5" y2="156.5" class="net_2,3,4,5 width_4" style="stroke-width: 2"/><line x1="674.5" x2="674.5" y1="156.5" y2="42" class="net_2,3,4,5 width_4" style="stroke-width: 2"/><line x1="674.5" x2="1038" y1="42" y2="42" class="net_2,3,4,5 width_4" style="stroke-width: 2"/><line x1="864" x2="913" y1="103" y2="103" class="net_65,66,67,68 width_4" style="stroke-width: 2"/><line x1="913" x2="913" y1="103" y2="146" class="net_65,66,67,68 width_4" style="stroke-width: 2"/><line x1="913" x2="938.5" y1="146" y2="146" class="net_65,66,67,68 width_4" style="stroke-width: 2"/><line x1="635.5" x2="735.1666666666666" y1="257" y2="257" class="net_49,50,51,52 width_4" style="stroke-width: 2"/><line x1="635.5" x2="684.5" y1="176.5" y2="176.5" class="net_6,7,8,9 width_4" style="stroke-width: 2"/><line x1="684.5" x2="684.5" y1="176.5" y2="277" class="net_6,7,8,9 width_4" style="stroke-width: 2"/><line x1="684.5" x2="735.1666666666666" y1="277" y2="277" class="net_6,7,8,9 width_4" style="stroke-width: 2"/><line x1="635.5" x2="684.5" y1="176.5" y2="176.5" class="net_6,7,8,9 width_4" style="stroke-width: 2"/><line x1="684.5" x2="684.5" y1="176.5" y2="236" class="net_6,7,8,9 width_4" style="stroke-width: 2"/><circle cx="684.5" cy="236" r="3" style="fill:#000" class="net_6,7,8,9 width_4"/><line x1="684.5" x2="1038" y1="236" y2="236" class="net_6,7,8,9 width_4" style="stroke-width: 2"/><line x1="760.6666666666666" x2="813.5" y1="267" y2="267" class="net_73,74,75,76 width_4" style="stroke-width: 2"/><line x1="813.5" x2="813.5" y1="267" y2="307" class="net_73,74,75,76 width_4" style="stroke-width: 2"/><line x1="813.5" x2="838.5" y1="307" y2="307" class="net_73,74,75,76 width_4" style="stroke-width: 2"/><line x1="964" x2="1013" y1="562" y2="562" class="net_77,78,79,80,61,62,63,64 width_8" style="stroke-width: 2"/><line x1="1013" x2="1013" y1="562" y2="572.5" class="net_77,78,79,80,61,62,63,64 width_8" style="stroke-width: 2"/><line x1="1013" x2="1038" y1="572.5" y2="572.5" class="net_77,78,79,80,61,62,63,64 width_8" style="stroke-width: 2"/><line x1="144" x2="1038" y1="592.5" y2="592.5" class="net_123,124,125,126,127,128,129,130 width_8" style="stroke-width: 2"/><line x1="144" x2="171" y1="592.5" y2="592.5" class="net_123,124,125,126,127,128,129,130 width_8" style="stroke-width: 2"/><line x1="171" x2="171" y1="592.5" y2="99" class="net_123,124,125,126,127,128,129,130 width_8" style="stroke-width: 2"/><circle cx="171" cy="592.5" r="3" style="fill:#000" class="net_123,124,125,126,127,128,129,130 width_8"/><line x1="171" x2="268.6666666666667" y1="99" y2="99" class="net_123,124,125,126,127,128,129,130 width_8" style="stroke-width: 2"/><line x1="964" x2="974" y1="156" y2="156" class="net_69,70,71,72 width_4" style="stroke-width: 2"/><line x1="974" x2="974" y1="156" y2="216" class="net_69,70,71,72 width_4" style="stroke-width: 2"/><line x1="974" x2="1038" y1="216" y2="216" class="net_69,70,71,72 width_4" style="stroke-width: 2"/><line x1="143" x2="181" y1="226" y2="226" class="net_2,3,4,5,6,7,8,9 width_8" style="stroke-width: 2"/><line x1="181" x2="181" y1="226" y2="119" class="net_2,3,4,5,6,7,8,9 width_8" style="stroke-width: 2"/><circle cx="181" cy="226" r="3" style="fill:#000" class="net_2,3,4,5,6,7,8,9 width_8"/><line x1="181" x2="268.6666666666667" y1="119" y2="119" class="net_2,3,4,5,6,7,8,9 width_8" style="stroke-width: 2"/><line x1="143" x2="434" y1="226" y2="226" class="net_2,3,4,5,6,7,8,9 width_8" style="stroke-width: 2"/><line x1="434" x2="434" y1="226" y2="166.5" class="net_2,3,4,5,6,7,8,9 width_8" style="stroke-width: 2"/><line x1="434" x2="628.5" y1="166.5" y2="166.5" class="net_2,3,4,5,6,7,8,9 width_8" style="stroke-width: 2"/><line x1="228" x2="281.6666666666667" y1="172.5" y2="172.5" class="net_31 width_1" style="stroke-width: 1"/><line x1="281.6666666666667" x2="281.6666666666667" y1="172.5" y2="127" class="net_31 width_1" style="stroke-width: 1"/><line x1="1163.5" x2="1237.5" y1="226" y2="226" class="net_12,13,14,15,16,17,18,19,20,21,22,23,24,25,26,27 width_16" style="stroke-width: 2"/><line x1="864" x2="884" y1="317" y2="317" class="net_77,78,79,80 width_4" style="stroke-width: 2"/><line x1="884" x2="884" y1="317" y2="552" class="net_77,78,79,80 width_4" style="stroke-width: 2"/><line x1="884" x2="957" y1="552" y2="552" class="net_77,78,79,80 width_4" style="stroke-width: 2"/><line x1="864" x2="874" y1="488.5" y2="488.5" class="net_61,62,63,64 width_4" style="stroke-width: 2"/><line x1="874" x2="874" y1="488.5" y2="572" class="net_61,62,63,64 width_4" style="stroke-width: 2"/><line x1="874" x2="957" y1="572" y2="572" class="net_61,62,63,64 width_4" style="stroke-width: 2"/><line x1="1063.5" x2="1112.5" y1="32" y2="32" class="net_12,13,14,15 width_4" style="stroke-width: 2"/><line x1="1112.5" x2="1112.5" y1="32" y2="206" class="net_12,13,14,15 width_4" style="stroke-width: 2"/><line x1="1112.5" x2="1156.5" y1="206" y2="206" class="net_12,13,14,15 width_4" style="stroke-width: 2"/><line x1="1063.5" x2="1156.5" y1="226" y2="226" class="net_16,17,18,19 width_4" style="stroke-width: 2"/><line x1="1063.5" x2="1112.5" y1="582.5" y2="582.5" class="net_20,21,22,23,24,25,26,27 width_8" style="stroke-width: 2"/><line x1="1112.5" x2="1112.5" y1="582.5" y2="246" class="net_20,21,22,23,24,25,26,27 width_8" style="stroke-width: 2"/><line x1="1112.5" x2="1156.5" y1="246" y2="246" class="net_20,21,22,23,24,25,26,27 width_8" style="stroke-width: 2"/><line x1="549.5" x2="628.5" y1="247" y2="247" class="net_49,50,51,52,53,54,55,56 width_8" style="stroke-width: 2"/><rect x="136" y="160" width="16" height="9" class="net_10,11 width_2 busLabel_2" style="fill: white; stroke: none"/><text x="135" y="168" class="net_10,11 width_2 busLabel_2">/2/</text><rect x="136" y="160" width="16" height="9" class="net_10,11 width_2 busLabel_2" style="fill: white; stroke: none"/><text x="135" y="168" class="net_10,11 width_2 busLabel_2">/2/</text><rect x="136" y="160" width="16" height="9" class="net_10,11 width_2 busLabel_2" style="fill: white; stroke: none"/><text x="135" y="168" class="net_10,11 width_2 busLabel_2">/2/</text><rect x="136" y="160" width="16" height="9" class="net_10,11 width_2 busLabel_2" style="fill: white; stroke: none"/><text x="135" y="168" class="net_10,11 width_2 busLabel_2">/2/</text><rect x="344.5" y="538.5" width="16" height="9" class="net_81,82 width_2 busLabel_2" style="fill: white; stroke: none"/><text x="343.5" y="546.5" class="net_81,82 width_2 busLabel_2">/2/</text><rect x="281.5" y="424.5" width="16" height="9" class="net_83,84 width_2 busLabel_2" style="fill: white; stroke: none"/><text x="280.5" y="432.5" class="net_83,84 width_2 busLabel_2">/2/</text><rect x="136" y="270" width="16" height="9" class="net_85,86 width_2 busLabel_2" style="fill: white; stroke: none"/><text x="135" y="278" class="net_85,86 width_2 busLabel_2">/2/</text><rect x="344.5" y="104" width="16" height="9" class="net_33,34,35,36,37,38,39,40 width_8 busLabel_8" style="fill: white; stroke: none"/><text x="343.5" y="112" class="net_33,34,35,36,37,38,39,40 width_8 busLabel_8">/8/</text><rect x="407.5" y="252" width="16" height="9" class="net_87,88,89,90,91,92,93,94 width_8 busLabel_8" style="fill: white; stroke: none"/><text x="406.5" y="260" class="net_87,88,89,90,91,92,93,94 width_8 busLabel_8">/8/</text><rect x="407.5" y="252" width="16" height="9" class="net_87,88,89,90,91,92,93,94 width_8 busLabel_8" style="fill: white; stroke: none"/><text x="406.5" y="260" class="net_87,88,89,90,91,92,93,94 width_8 busLabel_8">/8/</text><rect x="473" y="182" width="16" height="9" class="net_41,42,43,44,45,46,47,48 width_8 busLabel_8" style="fill: white; stroke: none"/><text x="472" y="190" class="net_41,42,43,44,45,46,47,48 width_8 busLabel_8">/8/</text><rect x="695.5" y="377" width="16" height="9" class="net_53,54,55,56 width_4 busLabel_4" style="fill: white; stroke: none"/><text x="694.5" y="385" class="net_53,54,55,56 width_4 busLabel_4">/4/</text><rect x="850.25" y="17" width="16" height="9" class="net_103,104,105,106 width_4 busLabel_4" style="fill: white; stroke: none"/><text x="849.25" y="25" class="net_103,104,105,106 width_4 busLabel_4">/4/</text><rect x="850.25" y="17" width="16" height="9" class="net_103,104,105,106 width_4 busLabel_4" style="fill: white; stroke: none"/><text x="849.25" y="25" class="net_103,104,105,106 width_4 busLabel_4">/4/</text><rect x="850.25" y="17" width="16" height="9" class="net_103,104,105,106 width_4 busLabel_4" style="fill: white; stroke: none"/><text x="849.25" y="25" class="net_103,104,105,106 width_4 busLabel_4">/4/</text><rect x="800.5" y="387" width="16" height="9" class="net_57,58,59,60 width_4 busLabel_4" style="fill: white; stroke: none"/><text x="799.5" y="395" class="net_57,58,59,60 width_4 busLabel_4">/4/</text><rect x="800.5" y="322" width="16" height="9" class="net_107,108,109,110 width_4 busLabel_4" style="fill: white; stroke: none"/><text x="799.5" y="330" class="net_107,108,109,110 width_4 busLabel_4">/4/</text><rect x="800.5" y="322" width="16" height="9" class="net_107,108,109,110 width_4 busLabel_4" style="fill: white; stroke: none"/><text x="799.5" y="330" class="net_107,108,109,110 width_4 busLabel_4">/4/</text><rect x="800.5" y="322" width="16" height="9" class="net_107,108,109,110 width_4 busLabel_4" style="fill: white; stroke: none"/><text x="799.5" y="330" class="net_107,108,109,110 width_4 busLabel_4">/4/</text><rect x="850.25" y="37" width="16" height="9" class="net_2,3,4,5 width_4 busLabel_4" style="fill: white; stroke: none"/><text x="849.25" y="45" class="net_2,3,4,5 width_4 busLabel_4">/4/</text><rect x="850.25" y="37" width="16" height="9" class="net_2,3,4,5 width_4 busLabel_4" style="fill: white; stroke: none"/><text x="849.25" y="45" class="net_2,3,4,5 width_4 busLabel_4">/4/</text><rect x="900" y="98" width="16" height="9" class="net_65,66,67,68 width_4 busLabel_4" style="fill: white; stroke: none"/><text x="899" y="106" class="net_65,66,67,68 width_4 busLabel_4">/4/</text><rect x="695.5" y="252" width="16" height="9" class="net_49,50,51,52 width_4 busLabel_4" style="fill: white; stroke: none"/><text x="694.5" y="260" class="net_49,50,51,52 width_4 busLabel_4">/4/</text><rect x="850.25" y="231" width="16" height="9" class="net_6,7,8,9 width_4 busLabel_4" style="fill: white; stroke: none"/><text x="849.25" y="239" class="net_6,7,8,9 width_4 busLabel_4">/4/</text><rect x="850.25" y="231" width="16" height="9" class="net_6,7,8,9 width_4 busLabel_4" style="fill: white; stroke: none"/><text x="849.25" y="239" class="net_6,7,8,9 width_4 busLabel_4">/4/</text><rect x="800.5" y="262" width="16" height="9" class="net_73,74,75,76 width_4 busLabel_4" style="fill: white; stroke: none"/><text x="799.5" y="270" class="net_73,74,75,76 width_4 busLabel_4">/4/</text><rect x="1000" y="557" width="16" height="9" class="net_77,78,79,80,61,62,63,64 width_8 busLabel_8" style="fill: white; stroke: none"/><text x="999" y="565" class="net_77,78,79,80,61,62,63,64 width_8 busLabel_8">/8/</text><rect x="215.5" y="94" width="16" height="9" class="net_123,124,125,126,127,128,129,130 width_8 busLabel_8" style="fill: white; stroke: none"/><text x="214.5" y="102" class="net_123,124,125,126,127,128,129,130 width_8 busLabel_8">/8/</text><rect x="215.5" y="94" width="16" height="9" class="net_123,124,125,126,127,128,129,130 width_8 busLabel_8" style="fill: white; stroke: none"/><text x="214.5" y="102" class="net_123,124,125,126,127,128,129,130 width_8 busLabel_8">/8/</text><rect x="1000" y="211" width="16" height="9" class="net_69,70,71,72 width_4 busLabel_4" style="fill: white; stroke: none"/><text x="999" y="219" class="net_69,70,71,72 width_4 busLabel_4">/4/</text><rect x="407.5" y="221" width="16" height="9" class="net_2,3,4,5,6,7,8,9 width_8 busLabel_8" style="fill: white; stroke: none"/><text x="406.5" y="229" class="net_2,3,4,5,6,7,8,9 width_8 busLabel_8">/8/</text><rect x="407.5" y="221" width="16" height="9" class="net_2,3,4,5,6,7,8,9 width_8 busLabel_8" style="fill: white; stroke: none"/><text x="406.5" y="229" class="net_2,3,4,5,6,7,8,9 width_8 busLabel_8">/8/</text><rect x="1199.5" y="221" width="22" height="9" class="net_12,13,14,15,16,17,18,19,20,21,22,23,24,25,26,27 width_16 busLabel_16" style="fill: white; stroke: none"/><text x="1198.5" y="229" class="net_12,13,14,15,16,17,18,19,20,21,22,23,24,25,26,27 width_16 busLabel_16">/16/</text><rect x="900" y="547" width="16" height="9" class="net_77,78,79,80 width_4 busLabel_4" style="fill: white; stroke: none"/><text x="899" y="555" class="net_77,78,79,80 width_4 busLabel_4">/4/</text><rect x="900" y="567" width="16" height="9" class="net_61,62,63,64 width_4 busLabel_4" style="fill: white; stroke: none"/><text x="899" y="575" class="net_61,62,63,64 width_4 busLabel_4">/4/</text><rect x="1099.5" y="27" width="16" height="9" class="net_12,13,14,15 width_4 busLabel_4" style="fill: white; stroke: none"/><text x="1098.5" y="35" class="net_12,13,14,15 width_4 busLabel_4">/4/</text><rect x="1099.5" y="221" width="16" height="9" class="net_16,17,18,19 width_4 busLabel_4" style="fill: white; stroke: none"/><text x="1098.5" y="229" class="net_16,17,18,19 width_4 busLabel_4">/4/</text><rect x="1099.5" y="577.5" width="16" height="9" class="net_20,21,22,23,24,25,26,27 width_8 busLabel_8" style="fill: white; stroke: none"/><text x="1098.5" y="585.5" class="net_20,21,22,23,24,25,26,27 width_8 busLabel_8">/8/</text><rect x="585.5" y="242" width="16" height="9" class="net_49,50,51,52,53,54,55,56 width_8 busLabel_8" style="fill: white; stroke: none"/><text x="584.5" y="250" class="net_49,50,51,52,53,54,55,56 width_8 busLabel_8">/8/</text></svg>